<?xml version="1.0" standalone="no"?><!DOCTYPE svg PUBLIC "-//W3C//DTD SVG 1.1//EN" "http://www.w3.org/Graphics/SVG/1.1/DTD/svg11.dtd"><svg t="1755375851954" class="icon" viewBox="0 0 1024 1024" version="1.1" xmlns="http://www.w3.org/2000/svg" p-id="6699" width="256" height="256" xmlns:xlink="http://www.w3.org/1999/xlink"><path d="M686.933333 861.866667H424.533333v-10.666667c0-66.133333-55.466667-121.6-121.6-121.6h-6.4v-85.333333c0-55.466667-27.733333-98.133333-74.666666-119.466667l29.866666-66.133333c4.266667-8.533333 4.266667-17.066667 2.133334-25.6-4.266667-17.066667-6.4-34.133333-6.4-53.333334 0-119.466667 110.933333-215.466667 245.333333-215.466666 136.533333 0 245.333333 96 245.333333 215.466666 0 21.333333 17.066667 38.4 38.4 38.4s38.4-17.066667 38.4-38.4C814.933333 217.6 669.866667 85.333333 490.666667 85.333333S168.533333 217.6 168.533333 377.6c0 19.2 2.133333 40.533333 6.4 59.733333l-42.666666 96c-4.266667 8.533333-4.266667 19.2 0 29.866667 4.266667 8.533333 10.666667 17.066667 19.2 21.333333 4.266667 2.133333 6.4 2.133333 10.666666 2.133334 46.933333 6.4 57.6 27.733333 57.6 55.466666v96c0 36.266667 29.866667 66.133333 66.133334 66.133334h17.066666c25.6 0 44.8 19.2 44.8 44.8v49.066666c0 21.333333 17.066667 38.4 38.4 38.4h298.666667c21.333333 0 38.4-17.066667 38.4-38.4s-17.066667-36.266667-36.266667-36.266666zM840.533333 445.866667c-21.333333 0-38.4 17.066667-38.4 38.4v311.466666c0 21.333333 17.066667 38.4 38.4 38.4s38.4-17.066667 38.4-38.4V484.266667c0-21.333333-17.066667-38.4-38.4-38.4z" fill="#297AFF" p-id="6700"></path><path d="M650.666667 467.2c-6.4-14.933333-21.333333-23.466667-36.266667-21.333333-14.933333 0-29.866667 10.666667-34.133333 23.466666l-115.2 290.133334c-4.266667 8.533333-4.266667 19.2 0 29.866666 4.266667 8.533333 10.666667 17.066667 21.333333 21.333334 4.266667 2.133333 8.533333 2.133333 14.933333 2.133333 14.933333 0 29.866667-8.533333 36.266667-23.466667l25.6-64H682.666667l29.866666 66.133334c8.533333 19.2 32 27.733333 51.2 19.2 19.2-8.533333 27.733333-32 19.2-51.2l-132.266666-292.266667z m-2.133334 179.2h-55.466666l25.6-66.133333 29.866666 66.133333z" fill="#297AFF" p-id="6701"></path></svg>